<?xml version="1.0" encoding="iso-8859-1"?>
<!-- Generator: Adobe Illustrator 16.0.0, SVG Export Plug-In . SVG Version: 6.00 Build 0)  -->
<!DOCTYPE svg PUBLIC "-//W3C//DTD SVG 1.1//EN" "http://www.w3.org/Graphics/SVG/1.1/DTD/svg11.dtd">
<svg xmlns="http://www.w3.org/2000/svg" xmlns:xlink="http://www.w3.org/1999/xlink" version="1.1" id="Capa_1" x="0px" y="0px" width="512px" height="512px" viewBox="0 0 40.972 40.972" style="enable-background:new 0 0 40.972 40.972;" xml:space="preserve">
<g>
	<path d="M40.898,17.693l-6.338-7.062c-0.082-0.093-0.216-0.124-0.332-0.08c-0.115,0.045-0.191,0.158-0.191,0.283l0.015,1.363   l-0.144,0.08v-1.446c0-0.096-0.045-0.187-0.123-0.243s-0.178-0.071-0.271-0.042c-0.316,0.105-7.645,2.571-9.367,7.074l-2.317-6.71   c-0.042-0.121-0.155-0.202-0.283-0.202l-0.549-0.002c0.489-0.389,0.81-0.972,0.842-1.635h0.129c0.166,0,0.301-0.134,0.301-0.3   c0-0.096-0.052-0.171-0.121-0.226c0.006-0.022,0.024-0.037,0.024-0.061c0-1.412-1.146-2.56-2.559-2.56s-2.559,1.148-2.559,2.56   c0,0.024,0.02,0.039,0.025,0.061c-0.07,0.055-0.121,0.13-0.121,0.226c0,0.166,0.134,0.3,0.3,0.3h0.13   c0.032,0.658,0.348,1.236,0.829,1.625l-4.141-0.016c0,0,0,0-0.001,0c-0.08,0-0.156,0.031-0.212,0.088l-3.787,3.787   c-0.086,0.085-0.112,0.215-0.065,0.327c0.046,0.112,0.156,0.185,0.277,0.185h1.578c0.075,0,0.147-0.028,0.203-0.079l2.128-1.946   l2.234-0.154l-3.32,3.893c-0.054,0.063-0.079,0.146-0.07,0.228c0.003,0.031,0.032,0.049,0.044,0.077   c-0.022,0.042-0.054,0.079-0.054,0.13c0,0.156,0.033,0.303,0.046,0.456l-0.256-0.016c-0.124,0-0.232,0.017-0.351,0.021H0.3   c-0.166,0-0.3,0.134-0.3,0.3c0,0.388,0.169,0.75,0.502,1.074c0.832,0.811,2.7,1.334,4.714,1.334c0.1,0,0.199-0.001,0.299-0.004   c0.862-0.023,1.876-0.148,2.755-0.332c-0.257,0.488-0.459,1.044-0.595,1.684c-0.33,1.557,0.254,3.494,1.575,4.686   c-0.024,0.031-0.06,0.055-0.069,0.098l-0.678,3.002c-0.035,0.154,0.054,0.307,0.204,0.354l1.482,0.459l-0.327,1.927   c-0.024,0.146,0.061,0.289,0.201,0.336l6.856,2.274c0.031,0.01,0.063,0.015,0.095,0.015h1.736c0.136,0,0.255-0.091,0.29-0.224   c0.035-0.131-0.023-0.27-0.141-0.336l-5.396-3.102c0.025-0.047,0.056-0.107,0.086-0.166l3.505,1.021   c0.027,0.01,0.056,0.014,0.084,0.014c0.057,0,0.113-0.018,0.163-0.048c0.073-0.048,0.122-0.124,0.134-0.21l0.185-1.287   c0.019-0.135-0.053-0.266-0.177-0.318l-2.891-1.254c-0.009-0.004-0.019,0.002-0.028,0c0.14-0.33,0.28-0.678,0.413-1.035   c0.533,0.158,1.976,0.527,3.946,0.527c1.321,0,2.872-0.168,4.524-0.682c0.021-0.006,0.029-0.029,0.051-0.041   c0.229,0.082,0.486,0.156,0.757,0.225l-0.292,1.27l-4.531,0.316c-0.132,0.01-0.243,0.104-0.271,0.232l-0.282,1.25   c-0.019,0.084-0.001,0.174,0.05,0.244c0.052,0.069,0.131,0.113,0.217,0.121l5.713,0.479c0.008,0,0.018,0,0.024,0   c0.097,0,0.187-0.045,0.243-0.123l2.357-3.25c0.008-0.011,0.002-0.022,0.008-0.034c0.385,0.036,0.736,0.062,1.007,0.081   l-4.902,5.728c-0.067,0.082-0.09,0.192-0.056,0.293c0.035,0.102,0.119,0.176,0.224,0.197l1.326,0.271   c0.021,0.004,0.04,0.006,0.062,0.006c0.074,0,0.148-0.028,0.205-0.082l6.92-6.541c0.063-0.062,0.1-0.149,0.092-0.239l-0.112-1.625   c-0.009-0.125-0.095-0.232-0.215-0.267l-2.687-0.781l3.795-5.512c1.857-0.248,3.396-0.786,4.365-1.497   c0.51,0.247,1.168,0.525,1.577,0.525c0.021,0,0.039,0,0.06-0.002c0.498-0.037,1.5-0.748,1.695-0.891   c0.069-0.05,0.113-0.126,0.122-0.211S40.955,17.756,40.898,17.693z M33.308,11.257v1.355l-8.366,4.675   C26.662,13.935,31.837,11.806,33.308,11.257z M18.511,17.516h4.429c-0.064,1.048-0.488,2.021-1.186,2.804L18.511,17.516z    M18.009,16.916l2.324-3.649l2.547,3.649H18.009z M20.091,10.521v-1.45h1.15C21.195,9.758,20.727,10.326,20.091,10.521z    M19.615,6.525c1.076,0,1.95,0.873,1.958,1.947h-3.916C17.665,7.397,18.539,6.525,19.615,6.525z M17.99,9.071h1.501v1.516   C18.685,10.525,18.045,9.88,17.99,9.071z M17.353,12.734c0.078-0.092,0.094-0.222,0.04-0.33c-0.055-0.108-0.169-0.173-0.289-0.165   l-3.05,0.21c-0.068,0.005-0.132,0.032-0.182,0.078l-2.12,1.938h-0.737l3.187-3.187l7.131,0.027l1.598,4.631l-2.361-3.383   c-0.058-0.082-0.166-0.124-0.252-0.128c-0.1,0.002-0.193,0.054-0.247,0.139l-2.773,4.354c-0.08,0.125-0.056,0.291,0.057,0.388   l4.63,4.003l-3.821,4.053h-0.72l2.191-3.713c0.078-0.133,0.044-0.302-0.078-0.394l-5.778-4.331L17.353,12.734z M18.793,21.845   c-0.17,0.026-0.305,0.05-0.501,0.05c-2.438,0-4.423-1.898-4.62-4.297l5.308,3.979l-0.155,0.266L18.793,21.845z M5.501,19.781   c-1.935,0.06-3.826-0.427-4.579-1.16c-0.116-0.112-0.2-0.228-0.254-0.345h9.329c-0.491,0.264-0.909,0.613-1.255,1.048   C7.809,19.571,6.518,19.755,5.501,19.781z M9.151,29.381l0.585-2.594c0.298,0.203,0.615,0.381,0.97,0.504l-0.414,2.441   L9.151,29.381z M14.356,29.523l2.681,1.162l-0.103,0.719l-3.069-0.896c0.142-0.291,0.302-0.629,0.471-1.008   C14.344,29.507,14.346,29.518,14.356,29.523z M15.762,23.691c-0.031-0.162-0.186-0.269-0.351-0.238   c-0.163,0.031-0.27,0.188-0.239,0.352c0.43,2.283-2.303,7.34-2.331,7.391c-0.078,0.144-0.027,0.322,0.114,0.404l4.672,2.684h-0.563   l-6.566-2.178l0.843-4.973c0.026-0.15-0.068-0.299-0.217-0.34c-2.289-0.623-3.208-3.293-2.86-4.934   c0.495-2.333,1.838-3.471,4.169-3.582h0.307c0.02,0,0.032-0.018,0.051-0.021c0.004,0,0.008-0.001,0.012-0.001l0.33,0.021   c0.002,0,0.004-0.002,0.006-0.002c0.489,2.405,2.613,4.221,5.152,4.221c0.057,0,0.101-0.006,0.151-0.008l-1.785,3.024   c-0.055,0.093-0.056,0.207-0.002,0.302c0.054,0.092,0.153,0.149,0.261,0.149h1.076v1.86c-1.37-0.086-2.377-0.332-2.809-0.455   C15.635,26.045,15.946,24.67,15.762,23.691z M24.744,31.268l-5.202-0.438l0.157-0.696l4.53-0.317   c0.133-0.008,0.241-0.104,0.271-0.23l0.342-1.486c0.652,0.133,1.341,0.229,1.98,0.303L24.744,31.268z M29.6,24.102   c0.172-0.839,0.182-1.863-0.386-2.781c-0.086-0.142-0.271-0.187-0.413-0.099c-0.141,0.087-0.186,0.271-0.098,0.412   c1.008,1.638-0.219,3.838-0.23,3.86c-0.045,0.08-0.052,0.177-0.017,0.261c0.034,0.086,0.106,0.149,0.194,0.176l3.023,0.88   l0.089,1.274l-6.702,6.336l-0.675-0.138l4.966-5.799c0.074-0.088,0.094-0.209,0.047-0.315c-0.045-0.104-0.146-0.175-0.263-0.181   c-0.032,0-2.534-0.112-4.405-0.522c-0.018-0.008-0.024-0.026-0.043-0.03c-0.019-0.005-0.031,0.008-0.051,0.008   c-0.566-0.129-1.072-0.287-1.422-0.479c-1.139-0.629-1.798-1.127-2.248-2.104c-0.069-0.15-0.247-0.217-0.397-0.146   c-0.151,0.068-0.217,0.246-0.147,0.396c0.526,1.146,1.343,1.723,2.285,2.256c-1.508,0.4-2.92,0.512-4.117,0.484v-2.066l4.042-4.289   c0.057-0.059,0.085-0.139,0.082-0.221c-0.004-0.082-0.042-0.158-0.104-0.211l-0.408-0.353c0.604-0.681,1.023-1.485,1.214-2.361   c0.956,1.203,3.37,1.801,7.377,1.801c0.54,0,1.063-0.022,1.569-0.065L29.6,24.102z M36.619,18.368   c-0.748,0.406-1.768,0.745-3,0.955l0.705-1.024C35.197,18.702,36.08,18.544,36.619,18.368z M39.111,18.427   c-0.211,0.008-0.645-0.151-1.088-0.353c0.395-0.412,0.609-0.867,0.609-1.348c0-0.166-0.134-0.3-0.3-0.3s-0.3,0.134-0.3,0.3   c0,0.359-0.207,0.725-0.584,1.069c-0.107-0.057-0.213-0.112-0.308-0.165c-0.091-0.051-0.202-0.051-0.294,0   c-0.087,0.049-2.136,1.167-3.443-0.997c-0.086-0.142-0.271-0.188-0.412-0.102c-0.141,0.086-0.188,0.27-0.103,0.412   c0.281,0.465,0.595,0.799,0.917,1.043l-0.996,1.449c-0.631,0.073-1.303,0.116-2.018,0.116c-3.418,0-5.637-0.43-6.641-1.275h0.164   h0.002c0.004,0,0.006-0.002,0.008-0.002c0.05-0.001,0.097-0.012,0.14-0.036l10.031-5.604c0.096-0.053,0.155-0.155,0.153-0.265   l-0.008-0.746l5.579,6.217C39.779,18.139,39.291,18.414,39.111,18.427z M35.402,14.365c0.064-0.137,0.274-0.156,0.47-0.044   c0.192,0.113,0.297,0.316,0.231,0.453c-0.066,0.138-0.277,0.157-0.472,0.044C35.439,14.706,35.337,14.503,35.402,14.365z" fill="#FFFFFF"/>
</g>
<g>
</g>
<g>
</g>
<g>
</g>
<g>
</g>
<g>
</g>
<g>
</g>
<g>
</g>
<g>
</g>
<g>
</g>
<g>
</g>
<g>
</g>
<g>
</g>
<g>
</g>
<g>
</g>
<g>
</g>
</svg>
