<?xml version="1.0" encoding="utf-8"?>
<!-- Generator: Adobe Illustrator 18.1.0, SVG Export Plug-In . SVG Version: 6.00 Build 0)  -->
<svg version="1.1" id="Capa_1" xmlns="http://www.w3.org/2000/svg" xmlns:xlink="http://www.w3.org/1999/xlink" x="0px" y="0px"
	 viewBox="0 0 870.2 765.3" enable-background="new 0 0 870.2 765.3" xml:space="preserve">
<g>
	<path fill="none" d="M495.7,341.8c-0.3-15.9,2.6-32.1,7.2-47.4c-20-0.3-39.5,2.8-57.9,9.2c-36.3,12.6-56.8,33-60.9,60.7
		c-3.6,24.2-4.1,41-4.4,53.4c0,0.7,0,1.3-0.1,2c12.7,4.4,25.9,7.2,39.3,8.3c1.5-1.9,2.9-3.7,4.2-5.5c-3.9-13.1-8.8-26.7-15-40.8
		c-2-4.6,0-9.9,4.6-12c4.6-2,9.9,0,12,4.6c3.8,8.5,7.1,16.9,10,25c11.4-37.1,20.7-56.8,21.1-57.6c1.9-4,6.6-5.6,10.6-3.8
		c4,1.9,5.6,6.6,3.8,10.6c0,0.1-1.7,3.7-4.5,10.6h0c9.5-3.6,20-3.8,29.6-0.8C495.6,353.2,495.8,347.7,495.7,341.8z"/>
	<path fill="none" d="M124.1,374.2c3.3-21.9,13.9-40.8,31.3-56c-19.1,2.6-41,9.6-45.2,28.1c-4.7,20.5,2.7,42.1,10.4,57.7
		C121.3,395.2,122.4,385.4,124.1,374.2z"/>
	<path fill="none" d="M513.9,341.5c0.2,8.9-0.3,17-1.2,24.5l66,30.5c16.3,7.5,34.2,11.9,52.2,12.7c-3.6-12.9-8.3-26.6-14.5-40.7
		c-1.8-4,0-8.7,4-10.5c4-1.8,8.7,0,10.5,4c33.3,75.4,26.5,136.9,22.1,159.9c-0.5,2.7-0.1,5.6,1.1,8l12.5,25.1h5.6
		c-1-0.9-1.7-2.1-2.2-3.4l-6.3-20.1c-0.3-0.9-0.4-1.9-0.4-2.9l6.5-110c0.6-9.7,3.6-19.1,8.8-27.1c5.6-8.7,14.9-27.8,14.3-57.8
		c-0.8-39,21.2-80.4,32.1-98.4c-3.9-1.9-7.5-4.7-10.3-8.1l-7.9-9.6c-2.8-3.4-2.3-8.4,1.1-11.2c3.4-2.8,8.4-2.3,11.2,1.1l7.9,9.6
		c2.7,3.3,6.7,5.3,10.9,5.5l47.3,2.7c6.1,0.4,12-2.4,15.7-7.2l-30-10.8l-7.3,1c-0.4,0-0.7,0.1-1.1,0.1c-3.9,0-7.3-2.9-7.8-6.9
		c-0.5-3.6,1.5-6.9,4.6-8.3l-2.2-3.9l-19.1-4l-8,8.7c-1.6,1.7-3.7,2.5-5.8,2.5c-1.9,0-3.9-0.7-5.4-2.1c-3.2-3-3.4-8-0.4-11.2
		l1.5-1.6c-3-0.4-6,0.9-7.8,3.5l-53.9,81.6c-6.3,9.5-16.3,15.9-27.5,17.7c-23.3,3.7-66.1,9.4-108.7,10
		C516.9,309.7,513.5,325.9,513.9,341.5z"/>
	<path fill="none" d="M395.7,313.1c-16.7,2.3-35.8,8.4-39.5,24.5c-4.1,17.9,2.4,36.8,9.1,50.4c0.7-7.6,1.6-16.2,3.1-26
		C371.3,342.8,380.5,326.4,395.7,313.1z"/>
	<path fill="none" d="M354.9,467.2c-21.2,12.4-30.4,20.5-33.7,23.8l-1.8,66.1h6.4c-2.4-1.4-3.9-3.9-4-6.7c0-2.4-0.8-59.2,32-74.9
		c21.5-10.4,37.4-21.1,49.1-31.2c-8.3-1.4-16.6-3.4-24.7-5.9C376.2,449.8,370.7,457.9,354.9,467.2z"/>
	<path fill="none" d="M340.8,334c9.2-40.3,70.5-38.5,80.9-37.9c5.6-2.7,11.6-5.2,18.1-7.5c20.7-7.2,42.5-10.5,65-10
		c1.1,0,2.3,0,3.4,0.1c7.9-21,17.8-38.9,24.2-49.6c-4.5-2.2-8.5-5.4-11.8-9.3l-9.1-11c-3.2-3.9-2.6-9.6,1.2-12.8
		c3.9-3.2,9.6-2.6,12.8,1.2l9.1,11c3.1,3.8,7.7,6.1,12.5,6.4l54.2,3.1c7,0.4,13.7-2.7,17.9-8.2l-34.4-12.3l-8.4,1.1
		c-0.4,0.1-0.8,0.1-1.2,0.1c-4.5,0-8.4-3.3-9-7.9c-0.5-4.1,1.7-7.9,5.3-9.5l-2.5-4.5l-21.8-4.5l-9.2,9.9c-1.8,1.9-4.2,2.9-6.7,2.9
		c-2.2,0-4.4-0.8-6.2-2.4c-3.7-3.4-3.9-9.2-0.5-12.8l1.7-1.9c-3.5-0.4-6.9,1.1-8.9,4.1l-61.7,93.5c-7.2,10.9-18.6,18.2-31.5,20.3
		c-30.4,4.8-89.6,12.6-144.5,11.3c-23.6-0.6-46.5,3-68.1,10.5c-41.5,14.4-65,37.8-69.7,69.5c-4.1,27.7-4.7,47-5.1,61.1
		c-0.8,28-1.1,40.8-28.4,56.8C84.4,509,73.8,518.3,70,522L68,597.7h7.3c-2.7-1.6-4.5-4.4-4.5-7.7c-0.1-2.8-0.9-67.8,36.6-85.8
		c69.9-33.7,87.7-70.8,92.1-85.3c13.4-43.7,24.2-66.9,24.7-67.8c2.1-4.5,7.6-6.5,12.1-4.3c4.5,2.1,6.5,7.6,4.3,12.1
		c0,0.1-2,4.2-5.2,12.1h0c12.9-4.9,27.5-4.4,40,1.4l85.5,39.5C352.6,399.6,333.3,366.6,340.8,334z"/>
	<path d="M820.3,211.5c-0.8-2.3-2.6-4.1-4.8-4.9L777,192.8l-6.5-11.5c-2.1-3.8-5.8-6.5-10.1-7.4l-36.9-7.7c-9.7-2-19.4,2-24.9,10.3
		l-53.9,81.6c-3.8,5.8-9.9,9.7-16.7,10.8c-21.8,3.4-60.8,8.7-100.3,9.7c-2.1,5.1-4.1,10.5-5.9,16c42.6-0.6,85.3-6.3,108.7-10
		c11.2-1.8,21.2-8.2,27.5-17.7l53.9-81.6c1.7-2.6,4.7-3.9,7.8-3.5l-1.5,1.6c-3,3.2-2.8,8.2,0.4,11.2c1.5,1.4,3.5,2.1,5.4,2.1
		c2.1,0,4.3-0.9,5.8-2.5l8-8.7l19.1,4l2.2,3.9c-3.1,1.4-5.1,4.7-4.6,8.3c0.5,4,3.9,6.9,7.8,6.9c0.3,0,0.7,0,1.1-0.1l7.3-1l30,10.8
		c-3.7,4.8-9.5,7.5-15.7,7.2l-47.3-2.7c-4.2-0.2-8.2-2.3-10.9-5.5l-7.9-9.6c-2.8-3.4-7.8-3.9-11.2-1.1c-3.4,2.8-3.9,7.8-1.1,11.2
		l7.9,9.6c2.8,3.4,6.4,6.2,10.3,8.1c-10.9,18.1-32.9,59.5-32.1,98.4c0.7,30-8.7,49.1-14.3,57.8c-5.2,8-8.2,17.3-8.8,27.1l-6.5,110
		c-0.1,1,0.1,1.9,0.4,2.9l6.3,20.1c0.4,1.3,1.2,2.5,2.2,3.4h-5.6L654,529.9c-1.2-2.4-1.6-5.3-1.1-8c4.5-22.9,11.2-84.5-22.1-159.9
		c-1.8-4-6.5-5.8-10.5-4c-4,1.8-5.8,6.5-4,10.5c6.2,14.1,11,27.7,14.5,40.7c-18-0.8-35.8-5.2-52.2-12.7l-66-30.5
		c-0.7,5.8-1.7,11.1-3,16.1l62.3,28.8c19.6,9,41.1,13.9,62.7,14.3c9.9,46.4,5,81.6,2.6,93.8c-1.2,6.1-0.3,12.6,2.5,18.1l14.7,29.4
		c1.3,2.7,4.1,4.4,7.1,4.4h31.7c2.8,0,5.5-1.5,6.9-4c1.4-2.5,1.4-5.5,0-7.9l-3.1-5.3c-3-5.2-7.8-9.1-13.4-11l-4.6-14.5l6.4-108.6
		c0.4-7,2.6-13.7,6.3-19.4c8.1-12.5,17.5-34.2,16.8-66.8c-0.8-38.5,24.7-81.9,32.8-94.6l42.7,2.5c12.4,0.7,24.3-5.4,30.9-15.9l4.4-7
		C820.7,216.3,821,213.8,820.3,211.5z"/>
	<path d="M353.8,475.4c-32.7,15.8-32,72.5-32,74.9c0.1,2.8,1.6,5.4,4,6.7h-6.4l1.8-66.1c3.3-3.3,12.5-11.4,33.7-23.8
		c15.8-9.3,21.3-17.4,23.3-28.9c-5.1-1.6-10.2-3.5-15.2-5.6c-1.2,10.2-4.5,14-16.2,20.8c-31.2,18.3-39.1,28.6-39.9,29.7
		c-0.9,1.3-1.5,2.8-1.5,4.4l-2.1,77.2c-0.1,2.1,0.7,4.2,2.2,5.7s3.5,2.4,5.7,2.4h33.3c2.5,0,4.9-1.2,6.4-3.3s1.9-4.7,1.1-7.1
		l-0.8-2.5c-2.3-6.8-7.2-12.3-13.5-15.4c0.7-16.2,5.5-46.6,22.9-54.9c8.1-3.9,18.6-9.4,29.5-16.5c1.7,7.9,2,15.3,0.9,22
		c-0.7,4.3,2.2,8.4,6.5,9.1c0.4,0.1,0.9,0.1,1.3,0.1c3.8,0,7.2-2.7,7.8-6.6c1.8-10.5,0.9-22-2.6-34.3c2.3-1.7,4.6-3.5,6.8-5.4
		c4.7-3.9,8.9-7.8,12.8-11.8c-7-0.3-13.9-1.1-20.8-2.2C391.2,454.3,375.3,465,353.8,475.4z"/>
	<path d="M424.7,428.2c-0.5-1.9-1.1-3.9-1.7-5.8c-1.3,1.8-2.7,3.6-4.2,5.5C420.8,428,422.8,428.2,424.7,428.2z"/>
	<path d="M363.8,416c-0.6-0.8-1.6-2.2-2.9-4.1l-85.5-39.5c-12.5-5.8-27.1-6.3-40-1.4h0c3.2-7.9,5.1-12,5.2-12.1
		c2.1-4.5,0.2-9.9-4.3-12.1c-4.5-2.1-9.9-0.2-12.1,4.3c-0.5,1-11.3,24.1-24.7,67.8c-4.4,14.4-22.2,51.6-92.1,85.3
		c-37.5,18.1-36.7,83.1-36.6,85.8c0.1,3.3,1.8,6.1,4.5,7.7H68L70,522c3.8-3.7,14.3-13,38.6-27.3c27.2-16,27.6-28.8,28.4-56.8
		c0.4-14.1,0.9-33.4,5.1-61.1c4.7-31.7,28.2-55.1,69.7-69.5c21.6-7.5,44.5-11,68.1-10.5c55,1.3,114.2-6.5,144.5-11.3
		c12.9-2,24.3-9.4,31.5-20.3l61.7-93.5c2-3,5.4-4.5,8.9-4.1l-1.7,1.9c-3.4,3.7-3.2,9.4,0.5,12.8c1.7,1.6,4,2.4,6.2,2.4
		c2.4,0,4.9-1,6.7-2.9l9.2-9.9l21.8,4.5l2.5,4.5c-3.6,1.6-5.8,5.4-5.3,9.5c0.6,4.6,4.5,7.9,9,7.9c0.4,0,0.8,0,1.2-0.1l8.4-1.1
		l34.4,12.3c-4.2,5.5-10.9,8.6-17.9,8.2l-54.2-3.1c-4.9-0.3-9.4-2.6-12.5-6.4l-9.1-11c-3.2-3.9-8.9-4.4-12.8-1.2
		c-3.9,3.2-4.4,8.9-1.2,12.8l9.1,11c3.2,3.9,7.3,7.1,11.8,9.3c-6.5,10.7-16.3,28.6-24.2,49.6c6.5,0.1,13.1,0.1,19.6-0.1
		c8.6-20.9,18.8-38,23.6-45.5l48.9,2.8c14.2,0.8,27.8-6.2,35.4-18.2l5-8c1.5-2.3,1.8-5.2,0.9-7.8c-0.9-2.6-2.9-4.7-5.5-5.6l-44-15.8
		l-7.4-13.2c-2.5-4.4-6.7-7.4-11.6-8.5l-42.3-8.8c-11.1-2.3-22.3,2.3-28.5,11.7l-61.7,93.5c-4.4,6.6-11.3,11.1-19.2,12.3
		c-29.8,4.7-87.7,12.4-141.3,11.1c-25.7-0.6-50.8,3.2-74.5,11.5c-7.4,2.6-14.3,5.4-20.7,8.5c-11.9-0.7-82.1-2.8-92.7,43.5
		c-9.9,43.1,21.2,86.8,26.4,93.9c0,0.5,0,0.9,0,1.4c-0.7,26.6-0.9,30.7-19.4,41.6c-35.7,20.9-44.8,32.7-45.8,34
		c-1.1,1.5-1.7,3.2-1.7,5.1l-2.4,88.4c-0.1,2.5,0.9,4.8,2.6,6.6c1.7,1.8,4.1,2.7,6.5,2.7h38.1c2.9,0,5.7-1.4,7.4-3.8
		c1.7-2.4,2.2-5.4,1.2-8.2l-0.9-2.8c-2.6-7.8-8.2-14.1-15.4-17.7c0.8-18.6,6.3-53.3,26.2-62.9c9.3-4.5,21.3-10.8,33.8-18.9
		c2,9.1,2.3,17.5,1,25.2c-0.8,4.9,2.5,9.6,7.5,10.4c0.5,0.1,1,0.1,1.5,0.1c4.4,0,8.2-3.1,8.9-7.6c2-12.1,1-25.3-3-39.3
		c2.6-2,5.2-4,7.8-6.2c22.8-18.9,37.6-39.1,44.1-60.2c1.7-5.6,6.3-18.9,7.1-20.4c3.8-7.2,10.1-12.9,17.9-15.8
		c8.4-3.2,17.8-2.8,26,0.9l89.5,41.3c1.9,0.9,3.8,1.7,5.7,2.5c0.5-4,0.6-9,0.8-15.5C363.8,416.8,363.8,416.4,363.8,416z
		 M110.2,346.3c4.2-18.4,26.1-25.5,45.2-28.1c-17.4,15.2-28,34.1-31.3,56c-1.7,11.2-2.8,21-3.5,29.8
		C112.9,388.4,105.5,366.8,110.2,346.3z"/>
	<path d="M492.8,374.3c-3.5,16.2-9.3,27.4-13.4,33.8c-5.9,9.1-9.4,19.9-10,31l-7.5,126c-0.1,1.1,0.1,2.2,0.4,3.3l7.3,23
		c0.5,1.5,1.4,2.9,2.5,3.9h-6.4l-14.4-28.7c-1.4-2.8-1.8-6.1-1.2-9.2c4.1-21.2,9.9-71.1-8-135c-4.6,8.2-10.8,16.2-18.4,23.9
		c1.8,0.1,3.7,0.2,5.5,0.2c11.3,53.2,5.7,93.5,3,107.4c-1.4,7-0.4,14.4,2.8,20.8l16.9,33.7c1.5,3.1,4.7,5,8.1,5h36.3
		c3.3,0,6.3-1.7,7.9-4.6c1.6-2.8,1.6-6.3,0-9.1l-3.6-6.1c-3.5-5.9-8.9-10.4-15.3-12.7l-5.2-16.6l7.4-124.3c0.5-8,3-15.7,7.2-22.2
		c5.4-8.3,11.2-20.1,15.1-35.9l-15.8-7.3C493.5,374.6,493.1,374.4,492.8,374.3z"/>
	<path d="M378.2,438.2c8.1,2.5,16.3,4.5,24.7,5.9c6.6-5.7,11.8-11.2,16-16.3c-13.4-1.1-26.6-3.9-39.3-8.3
		C379.4,426.9,379.2,432.9,378.2,438.2z"/>
	<path d="M412.7,369.7c-4.6,2-6.7,7.4-4.6,12c6.2,14.1,11.1,27.7,15,40.8c6.6-9.2,9.7-16.7,11.1-21.5c0.2-0.5,0.3-1.1,0.5-1.6
		c-2.9-8.2-6.2-16.5-10-25C422.7,369.7,417.3,367.6,412.7,369.7z"/>
	<path d="M504.4,294.5c-0.5,0-1,0-1.5,0c-4.5,15.3-7.5,31.5-7.2,47.4c0.1,5.8-0.1,11.3-0.5,16.5c1.8,0.6,3.6,1.2,5.3,2l12.1,5.6
		c0.9-7.5,1.4-15.6,1.2-24.5c-0.3-15.5,3.1-31.8,8-46.9C516,294.6,510.2,294.6,504.4,294.5z"/>
	<path d="M379.6,419.6c-5-1.7-9.9-3.7-14.6-5.9l-4.1-1.9c1.3,1.9,2.3,3.3,2.9,4.1c0,0.4,0,0.8,0,1.2c-0.2,6.5-0.3,11.5-0.8,15.5
		c5,2.1,10,3.9,15.2,5.6C379.2,432.9,379.4,426.9,379.6,419.6z"/>
	<path d="M500.5,360.3c-1.7-0.8-3.5-1.5-5.3-2c-0.5,5.8-1.3,11.1-2.4,16c0.4,0.2,0.7,0.3,1.1,0.5l15.8,7.3c1.2-5,2.2-10.3,3-16.1
		L500.5,360.3z"/>
	<path d="M508.2,278.7c-1.9,5.1-3.7,10.4-5.3,15.8c0.5,0,1,0,1.5,0c5.8,0.1,11.7,0.2,17.5,0.1c1.8-5.5,3.8-10.8,5.9-16
		C521.3,278.7,514.7,278.8,508.2,278.7z"/>
	<path d="M434.7,399.3c-0.2,0.5-0.3,1.1-0.5,1.6c-1.4,4.7-4.6,12.3-11.1,21.5c0.6,2,1.1,3.9,1.7,5.8c-2-0.1-3.9-0.2-5.9-0.4
		c-4.2,5.1-9.4,10.6-16,16.3c6.9,1.1,13.8,1.9,20.8,2.2c7.6-7.8,13.7-15.8,18.4-23.9C439.9,414.9,437.5,407.2,434.7,399.3z"/>
</g>
</svg>
