<?xml version="1.0" encoding="utf-8"?>
<!-- Generator: Adobe Illustrator 20.1.0, SVG Export Plug-In . SVG Version: 6.00 Build 0)  -->
<svg version="1.1" id="Layer_1" xmlns="http://www.w3.org/2000/svg" xmlns:xlink="http://www.w3.org/1999/xlink" x="0px" y="0px"
	 viewBox="0 0 512 512" style="enable-background:new 0 0 512 512;" xml:space="preserve">
<style type="text/css">
	.st0{fill:#FFFFFF;}
</style>
<g>
	<g>
		<g>
			<path class="st0" d="M332.8,128v187.7c0,4.7,3.8,8.5,8.5,8.5s8.5-3.8,8.5-8.5V128c0-4.7-3.8-8.5-8.5-8.5S332.8,123.3,332.8,128z"
				/>
			<path class="st0" d="M162.1,128v187.7c0,4.7,3.8,8.5,8.5,8.5s8.5-3.8,8.5-8.5V128c0-4.7-3.8-8.5-8.5-8.5S162.1,123.3,162.1,128z"
				/>
			<path class="st0" d="M135.7,175.6c-1.4-3-4.4-5-7.7-5H59.7c-4.7,0-8.5,3.8-8.5,8.5v8.5c0,4.7,3.8,8.5,8.5,8.5s8.5-3.8,8.5-8.5
				h42.1c-14.3,19.2-37.6,54.5-41.5,85.3h-0.6c-4.7,0-8.5,3.8-8.5,8.5s3.8,8.5,8.5,8.5h17.1c4.7,0,8.5-3.8,8.5-8.5
				c0-4.5-3.5-8-7.8-8.4c5.9-38.3,48-87.9,48.4-88.5C136.6,182.2,137.1,178.7,135.7,175.6z"/>
			<path class="st0" d="M264.5,264.5c0,14.1,11.5,25.6,25.6,25.6s25.6-11.5,25.6-25.6c0-12.4-8.9-22.8-20.7-25.1
				c-5.1-8.4-18-34.5-5.5-65.6c1.3-3.2,0.5-6.9-2-9.3c-2.5-2.4-6.1-3.1-9.3-1.7c-51.3,22-62,61.4-64.3,77.5
				c-10.2,3.4-17.7,12.9-17.7,24.2c0,14.1,11.5,25.6,25.6,25.6s25.6-11.5,25.6-25.6c0-10.8-6.8-20.1-16.3-23.8
				c2-11.6,9.4-35.5,37.1-53.3c-3.7,24,3.4,43.9,9.1,55.1C269.7,247,264.5,255.1,264.5,264.5z M290.1,256c4.7,0,8.5,3.8,8.5,8.5
				s-3.8,8.5-8.5,8.5s-8.5-3.8-8.5-8.5S285.4,256,290.1,256z M221.9,273.1c-4.7,0-8.5-3.8-8.5-8.5s3.8-8.5,8.5-8.5
				c4.7,0,8.5,3.8,8.5,8.5C230.4,269.2,226.6,273.1,221.9,273.1z"/>
			<path class="st0" d="M460,175.6c-1.4-3-4.4-5-7.7-5H384c-4.7,0-8.5,3.8-8.5,8.5v8.5c0,4.7,3.8,8.5,8.5,8.5s8.5-3.8,8.5-8.5h42.1
				c-14.3,19.2-37.6,54.5-41.5,85.3h-0.6c-4.7,0-8.5,3.8-8.5,8.5s3.8,8.5,8.5,8.5h17.1c4.7,0,8.5-3.8,8.5-8.5c0-4.5-3.5-8-7.8-8.4
				c5.9-38.3,48-87.9,48.4-88.5C460.9,182.2,461.4,178.7,460,175.6z"/>
			<path class="st0" d="M503.5,375.5c-4.7,0-8.5,3.8-8.5,8.5v85.3c0,14.1-11.5,25.6-25.6,25.6H42.7c-14.1,0-25.6-11.5-25.6-25.6
				V102.4h452.3c4.7,0,8.5-3.8,8.5-8.5s-3.8-8.5-8.5-8.5H8.5c-4.7,0-8.5,3.8-8.5,8.5v375.5C0,492.9,19.1,512,42.7,512h426.7
				c23.5,0,42.7-19.1,42.7-42.7V384C512,379.3,508.2,375.5,503.5,375.5z"/>
			<path class="st0" d="M136.5,426.7c0-18.8-15.3-34.1-34.1-34.1c-18.8,0-34.1,15.3-34.1,34.1s15.3,34.1,34.1,34.1
				S136.5,445.5,136.5,426.7z M85.3,426.7c0-9.4,7.7-17.1,17.1-17.1c9.4,0,17.1,7.7,17.1,17.1s-7.7,17.1-17.1,17.1
				C93,443.7,85.3,436.1,85.3,426.7z"/>
			<path class="st0" d="M443.7,452.3v-51.2c0-4.7-3.8-8.5-8.5-8.5s-8.5,3.8-8.5,8.5v51.2c0,4.7,3.8,8.5,8.5,8.5
				S443.7,457,443.7,452.3z"/>
			<path class="st0" d="M469.3,0H42.7C19.1,0,0,19.1,0,42.7v17.1c0,4.7,3.8,8.5,8.5,8.5s8.5-3.8,8.5-8.5V42.7
				c0-14.1,11.5-25.6,25.6-25.6h426.7c14.1,0,25.6,11.5,25.6,25.6v298.7H34.1c-4.7,0-8.5,3.8-8.5,8.5s3.8,8.5,8.5,8.5h469.3
				c4.7,0,8.5-3.8,8.5-8.5V42.7C512,19.1,492.9,0,469.3,0z"/>
			<path class="st0" d="M409.6,452.3v-51.2c0-4.7-3.8-8.5-8.5-8.5s-8.5,3.8-8.5,8.5v51.2c0,4.7,3.8,8.5,8.5,8.5
				S409.6,457,409.6,452.3z"/>
			<path class="st0" d="M375.5,452.3v-51.2c0-4.7-3.8-8.5-8.5-8.5s-8.5,3.8-8.5,8.5v51.2c0,4.7,3.8,8.5,8.5,8.5
				S375.5,457,375.5,452.3z"/>
			<path class="st0" d="M221.9,426.7c0-18.8-15.3-34.1-34.1-34.1s-34.1,15.3-34.1,34.1s15.3,34.1,34.1,34.1S221.9,445.5,221.9,426.7
				z M170.7,426.7c0-9.4,7.7-17.1,17.1-17.1s17.1,7.7,17.1,17.1s-7.7,17.1-17.1,17.1S170.7,436.1,170.7,426.7z"/>
			<path class="st0" d="M307.2,426.7c0-18.8-15.3-34.1-34.1-34.1c-18.8,0-34.1,15.3-34.1,34.1s15.3,34.1,34.1,34.1
				S307.2,445.5,307.2,426.7z M256,426.7c0-9.4,7.7-17.1,17.1-17.1c9.4,0,17.1,7.7,17.1,17.1s-7.7,17.1-17.1,17.1
				C263.7,443.7,256,436.1,256,426.7z"/>
		</g>
	</g>
</g>
</svg>
